<svg id="图层_1" data-name="图层 1" xmlns="http://www.w3.org/2000/svg" viewBox="0 0 74.0883 102.38298">
  <defs>
    <style>
      .cls-1 {
        fill: #f5bd29;
      }
    </style>
  </defs>
  <path class="cls-1" d="M51.37373,73.35181a63.32692,63.32692,0,0,1-16.46217,1.89437c-8.03855,0-14.60688-1.376-14.62734-2.99652-.01357-1.07785,1.28972-1.54779,1.28972-1.54779l-.23193-.13451c-3.84933.68042-7.42519,1.73213-7.40452,3.30666.03565,2.85736,10.96214,5.00313,20.95827,5.00313,8.49816,0,16.66007-1.42585,20.34166-3.29389ZM24.20808,82.18542c-1.78519.3553-5.67584,1.2486-5.67584,3.14055,0,2.62077,8.32416,4.62818,16.36028,4.62818,11.058,0,15.58709-2.84542,15.79208-2.99268l-4.598-2.66007a44.50713,44.50713,0,0,1-11.18294,1.198c-6.62141,0-10.93541-1.13395-10.93541-2.37546a1.0699,1.0699,0,0,1,.47157-.80458Zm45.18674-17.634c-.30932,5.93451-5.79211,9.62968-11.27228,12.752l.49689.28643C64.46685,75.94483,74.90051,71.1544,74.038,63.791c-.42963-3.67228-3.78612-6.29609-8.16191-6.29609a12.24362,12.24362,0,0,0-3.55762.53963l-.00305.00952-.20742.52221A5.93443,5.93443,0,0,1,69.39482,64.55142ZM34.7414,99.378c15.3821-.1337,32.59294-3.1444,32.54858-8.20465a2.4493,2.4493,0,0,0-1.12423-1.925l-.25239.14463c-1.422,3.92-13.44133,6.81608-31.19809,6.971-11.45762.09986-27.3287-2.64508-27.35645-5.81723-.02775-3.18025,7.51856-4.928,7.51856-4.928l-.53315-.30465c-5.057.69621-14.37494,3.11827-14.34415,6.61493C.04444,96.98453,21.45929,99.4945,34.7414,99.378Zm-1.6,3.61293a121.10092,121.10092,0,0,1-19.86-1.50809l-.58156.33463c6.25578,1.83422,14.96522,2.942,24.53555,2.859C56.03047,104.5118,71.26854,99.85121,71.57,94.242l-.21756-.1266C70.09265,95.65287,61.96335,102.73937,33.14135,102.991ZM9.59573,63.19829c0-2.83508,10.75412-4.42561,15.76129-4.81089l.47785.2761c-1.92354.34982-9.64082,1.71085-9.64082,3.48632,0,1.93307,11.83662,3.1999,18.70718,3.1999A89.3557,89.3557,0,0,0,56.63654,63.0012l2.98457,1.737c-2.04387,1.00087-10.81894,3.62386-24.71907,3.62386-15.44874,0-25.30631-3.02266-25.30631-5.16376" transform="translate(0 -2.29787)"/>
  <path class="cls-1" d="M56.28043,23.57173l-.25868-.14787c-4.69867,1.57372-19.16052,7.282-19.16052,17.92529,0,6.01979,5.87821,9.35338,5.87821,14.99844a8.45364,8.45364,0,0,1-2.06271,5.03006l.46529.269c2.44656-1.59053,6.77859-5.03412,6.77859-9.48019,0-3.76486-5.21116-8.28851-5.21116-13.128C42.70945,31.41319,52.76411,25.43046,56.28043,23.57173Zm-7.09926-13.95c0,15.75239-21.58723,21.78028-21.58723,32.97984,0,7.86211,5.21359,12.79252,8.09769,15.90916l-.23416.13532C31.816,56.368,22.2347,50.64339,22.2347,41.18689c0-13.27584,24.795-19.61953,24.795-34.69939a16.90285,16.90285,0,0,0-.46691-4.045l.251-.14463a11.71743,11.71743,0,0,1,2.36737,7.3239" transform="translate(0 -2.29787)"/>
</svg>
